<svg width="14" height="19" viewBox="0 0 14 19" fill="none" xmlns="http://www.w3.org/2000/svg">
<path d="M6.42928e-05 6.81551C6.42928e-05 5.99406 0.137556 5.21801 0.408497 4.4937C0.66736 3.79018 1.05196 3.1445 1.5418 2.59106C2.03064 2.04488 2.59004 1.57258 3.20383 1.18783C3.83358 0.78994 4.51537 0.489756 5.2278 0.296698C5.94884 0.0989598 6.69129 -0.000761665 7.43677 4.37997e-06C8.58827 4.37997e-06 9.6599 0.254464 10.6537 0.761271C11.6345 1.25884 12.4693 2.02242 13.0709 2.97222C13.6917 3.93832 14 5.03112 14 6.24957C14 6.98022 13.9313 7.69503 13.7907 8.394C13.6527 9.09258 13.4334 9.77091 13.1376 10.4138C12.8557 11.0362 12.4871 11.6116 12.0438 12.1211C11.5982 12.6226 11.0586 13.023 10.4586 13.2974C9.8071 13.5955 9.10237 13.7456 8.39113 13.7377C7.89676 13.7377 7.40341 13.6162 6.91612 13.3723C6.42883 13.1295 6.07904 12.7958 5.86876 12.3682C5.79495 12.6649 5.69386 13.0936 5.5594 13.6542C5.42999 14.2138 5.34305 14.5749 5.30463 14.7386C5.26419 14.9012 5.18938 15.1725 5.0802 15.5484C5.00615 15.8265 4.91116 16.098 4.79611 16.3604L4.44834 17.072C4.29794 17.3774 4.12981 17.6729 3.94488 17.9568C3.76189 18.2335 3.53543 18.5639 3.2655 18.944L3.11487 19L3.01478 18.886C2.90661 17.6897 2.851 16.9738 2.851 16.7373C2.851 16.0373 2.93087 15.2517 3.08858 14.3796C3.24326 13.5085 3.48792 12.4136 3.81648 11.097C4.14505 9.78139 4.33309 9.00745 4.38364 8.77833C4.15213 8.28525 4.03485 7.64118 4.03485 6.84929C4.03485 6.21684 4.2239 5.62451 4.60302 5.06702C4.98314 4.51165 5.46336 4.23396 6.04568 4.23396C6.49151 4.23396 6.83727 4.38811 7.08495 4.69747C7.33365 5.00578 7.45497 5.39434 7.45497 5.86841C7.45497 6.371 7.29524 7.09847 6.97375 8.04979C6.65226 9.00217 6.49252 9.71276 6.49252 10.1847C6.49252 10.663 6.6563 11.0632 6.98386 11.3768C7.30711 11.6905 7.7346 11.8605 8.17579 11.8508C8.57614 11.8508 8.94716 11.7558 9.29191 11.5647C9.63126 11.3792 9.925 11.1143 10.1502 10.7908C10.6408 10.0879 10.9905 9.28886 11.1784 8.44151C11.2754 7.99595 11.3502 7.57255 11.3967 7.1745C11.4463 6.77433 11.4675 6.39634 11.4675 6.03735C11.4675 4.7207 11.0672 3.69442 10.2715 2.95955C9.47186 2.22468 8.43056 1.85935 7.14966 1.85935C5.69285 1.85935 4.47463 2.35138 3.49904 3.3386C2.52244 4.32265 2.03111 5.57383 2.03111 7.09108C2.03111 7.42579 2.07963 7.74888 2.17163 8.06141C2.26161 8.37288 2.35967 8.62101 2.46582 8.80473C2.57097 8.98528 2.67004 9.1616 2.76002 9.3242C2.851 9.4868 2.89852 9.60295 2.89852 9.67263C2.89852 9.88591 2.84494 10.1636 2.73676 10.5068C2.62455 10.8499 2.49211 11.021 2.33238 11.021C2.31721 11.021 2.25453 11.0093 2.14535 10.9851C1.76721 10.8671 1.42571 10.6467 1.1556 10.3463C0.868931 10.0348 0.642693 9.66841 0.489374 9.26719C0.336493 8.86739 0.217418 8.45439 0.133513 8.0329C0.0428604 7.63408 -0.00193857 7.2254 6.42928e-05 6.81551Z" fill="white"/>
</svg>
