<svg width="18" height="16" viewBox="0 0 18 16" fill="none" xmlns="http://www.w3.org/2000/svg">
<path d="M18 1.89155C17.3272 2.21951 16.6127 2.43363 15.881 2.52658C16.6517 2.02119 17.2287 1.22713 17.5051 0.291678C16.7803 0.761659 15.9877 1.09334 15.1612 1.27252C14.8154 0.869787 14.3977 0.549039 13.9339 0.33015C13.4702 0.11126 12.9703 -0.00110722 12.4653 8.22375e-06C11.909 -0.000628209 11.3597 0.13641 10.8587 0.400868C10.3576 0.665326 9.91769 1.05035 9.57185 1.52714C9.22601 2.00393 8.98319 2.56012 8.86157 3.15411C8.73994 3.7481 8.74267 4.36449 8.86953 4.95716C7.40144 4.87645 5.96528 4.45882 4.65426 3.73138C3.34325 3.00394 2.1867 1.98296 1.25969 0.73472C0.787466 1.62369 0.642661 2.67617 0.854755 3.67786C1.06685 4.67956 1.61989 5.55513 2.40127 6.1263C1.8149 6.10556 1.24137 5.93306 0.727693 5.62295V5.67341C0.727488 6.60649 1.02244 7.51088 1.56246 8.23301C2.10249 8.95514 2.85429 9.45049 3.6902 9.63495C3.14564 9.79737 2.57434 9.82136 2.01999 9.7051C2.25658 10.5073 2.7159 11.2088 3.33399 11.712C3.95207 12.2152 4.69817 12.4949 5.46838 12.5123C4.70221 13.1709 3.82481 13.6576 2.88646 13.9446C1.9481 14.2316 0.967225 14.3132 0 14.1847C1.68862 15.3727 3.65434 16.0029 5.66183 16C12.4518 16 16.1678 9.84293 16.1678 4.50427C16.1678 4.32705 16.1645 4.15476 16.1577 3.98124C16.8812 3.41186 17.5049 2.70439 17.9989 1.89278L18 1.89155Z" fill="white"/>
</svg>
