<svg width="27" height="19" viewBox="0 0 27 19" fill="none" xmlns="http://www.w3.org/2000/svg">
<path d="M26.6838 4.08054C26.8946 5.56823 27 7.03468 27 8.47987V10.5201L26.6838 14.9195C26.5152 16.1521 26.1569 17.0447 25.6089 17.5973C25.0187 18.1924 24.1335 18.5749 22.9532 18.745C21.815 18.83 20.4555 18.8937 18.8747 18.9362C17.2939 18.9787 15.9977 19 14.9859 19H13.4684C8.78923 18.9575 5.73302 18.8725 4.29977 18.745L3.79391 18.6812L2.9719 18.5537L2.1815 18.2349L1.35948 17.5973L0.727166 16.5453L0.379391 15.3658L0.252927 14.9195C0.0843091 13.4318 0 11.9653 0 10.5201V8.47987L0.252927 4.08054C0.421546 2.84787 0.779859 1.95526 1.32787 1.40268C1.91803 0.765101 2.82436 0.38255 4.04684 0.255034C5.18501 0.170022 6.53396 0.106264 8.09368 0.0637584C9.6534 0.0212528 10.9391 0 11.9508 0H13.4684C17.2623 0 20.4239 0.0850112 22.9532 0.255034C24.1335 0.38255 25.0187 0.765101 25.6089 1.40268C25.7775 1.57271 25.9251 1.77461 26.0515 2.00839C26.178 2.24217 26.2834 2.47595 26.3677 2.70973C26.452 2.94351 26.5152 3.16667 26.5574 3.37919C26.5995 3.59172 26.6417 3.76174 26.6838 3.88926V4.08054ZM17.1358 9.69127L18.0211 9.24497L10.7494 5.41946V13.0705L17.1358 9.69127Z" fill="white"/>
</svg>
